<svg height="512pt" viewBox="-16 0 512 512" width="512pt" xmlns="http://www.w3.org/2000/svg"><g fill-rule="evenodd"><path d="m42 74h296c17.597656 0 32-14.398438 32-32s-14.402344-32-32-32h-296c-17.601562 0-32 14.398438-32 32s14.398438 32 32 32zm0 0" fill="#00c9af"/><path d="m214 114h-48c-8.800781 0-16 7.199219-16 16s7.199219 16 16 16h48c8.800781 0 16-7.199219 16-16s-7.199219-16-16-16zm0 0" fill="#00c9af"/><path d="m166 146c-8.800781 0-16-7.199219-16-16s7.199219-16 16-16h48c8.800781 0 16 7.199219 16 16s-7.199219 16-16 16zm172 40c17.601562 0 32-14.402344 32-32v-112c0 17.601562-14.402344 32-32 32h-296c-17.601562 0-32-14.398438-32-32v112c0 17.597656 14.398438 32 32 32zm0 0" fill="#8ae7d3"/><path d="m338 186h-296c-17.601562 0-32-14.402344-32-32v112c0 17.597656 14.398438 31.996094 32 31.996094h296c17.597656 0 31.996094-14.398438 31.996094-31.996094v-112c.003906 17.597656-14.398438 32-31.996094 32zm-188 56c0-8.800781 7.199219-16 16-16h48c8.800781 0 16 7.199219 16 16s-7.199219 16-16 16h-48c-8.800781 0-16-7.199219-16-16zm0 0" fill="#8ae7d3"/><path d="m214 226h-48c-8.800781 0-16 7.199219-16 16s7.199219 16 16 16h48c8.800781 0 16-7.199219 16-16s-7.199219-16-16-16zm0 0" fill="#00c9af"/><path d="m338 298h-296c-17.601562 0-32-14.402344-32-32v112c0 17.597656 14.398438 32 32 32h228.3125c-.207031-2.640625-.3125-5.308594-.3125-8 0-55.226562 44.769531-100 100-100v-36c0 17.597656-14.402344 32-32 32zm-172 40h48c8.800781 0 16 7.199219 16 16 0 8.796875-7.199219 16-16 16h-48c-8.800781 0-16-7.203125-16-16 0-8.800781 7.199219-16 16-16zm0 0" fill="#8ae7d3"/><path d="m214 338h-48c-8.800781 0-16 7.199219-16 16 0 8.796875 7.199219 16 16 16h48c8.800781 0 16-7.203125 16-16 0-8.800781-7.199219-16-16-16zm0 0" fill="#00c9af"/><path d="m370 302c-55.230469 0-100 44.773438-100 100 0 2.691406.105469 5.359375.3125 8 4.078125 51.488281 47.148438 92 99.6875 92 55.226562 0 100-44.769531 100-100 0-55.226562-44.773438-100-100-100zm0 0" fill="#a3bfee"/><path d="m318.6875 417.085938c-6.246094-6.246094-6.246094-16.378907 0-22.625 6.246094-6.246094 16.378906-6.246094 22.625 0l12.835938 12.839843 44.539062-44.539062c6.246094-6.246094 16.375-6.246094 22.625 0 6.246094 6.25 6.246094 16.378906 0 22.625l-55.851562 55.847656c-6.246094 6.25-16.375 6.25-22.625 0zm0 0" fill="#73ca5b"/></g><path d="m428.382812 355.691406c-4.910156-4.910156-11.4375-7.613281-18.382812-7.613281s-13.472656 2.703125-18.386719 7.613281l-37.464843 37.46875-5.765626-5.769531c-4.910156-4.910156-11.4375-7.613281-18.386718-7.613281-6.941406 0-13.472656 2.703125-18.382813 7.613281-10.136719 10.136719-10.136719 26.628906 0 36.765625l24.152344 24.152344c5.066406 5.066406 11.722656 7.601562 18.382813 7.601562 6.65625 0 13.316406-2.535156 18.382812-7.601562l55.847656-55.851563c4.914063-4.910156 7.617188-11.4375 7.617188-18.382812 0-6.945313-2.703125-13.472657-7.613282-18.382813zm-14.144531 22.625-55.847656 55.851563c-2.339844 2.339843-6.144531 2.335937-8.480469 0l-24.152344-24.152344c-2.105468-2.125-2.332031-5.582031-.476562-7.945313 2.191406-2.785156 6.453125-3.046874 8.960938-.539062l12.835937 12.839844c3.90625 3.902344 10.238281 3.902344 14.144531 0l44.535156-44.539063c2.3125-2.308593 6.171876-2.308593 8.484376 0 2.308593 2.316407 2.308593 6.171875-.003907 8.484375zm0 0"/><path d="m287.964844 308h.269531c5.523437 0 10-4.476562 10-10s-4.476563-10-10-10h-.269531c-5.519532 0-10 4.476562-10 10s4.476562 10 10 10zm0 0"/><path d="m166 156h48c14.335938 0 26-11.664062 26-26s-11.664062-26-26-26h-48c-14.335938 0-26 11.664062-26 26s11.664062 26 26 26zm0-32h48c3.25 0 6 2.746094 6 6 0 3.25-2.75 6-6 6h-48c-3.253906 0-6-2.75-6-6 0-3.253906 2.746094-6 6-6zm0 0"/><path d="m214 216h-48c-14.335938 0-26 11.664062-26 26s11.664062 26 26 26h48c14.335938 0 26-11.664062 26-26s-11.664062-26-26-26zm0 32h-48c-3.253906 0-6-2.75-6-6 0-3.253906 2.746094-6 6-6h48c3.25 0 6 2.746094 6 6 0 3.25-2.746094 6-6 6zm0 0"/><path d="m214 328h-48c-14.335938 0-26 11.664062-26 26s11.664062 26 26 26h48c14.335938 0 26-11.664062 26-26s-11.664062-26-26-26zm0 32h-48c-3.253906 0-6-2.75-6-6 0-3.253906 2.746094-6 6-6h48c3.25 0 6 2.746094 6 6 0 3.25-2.746094 6-6 6zm0 0"/><path d="m380 292.460938v-250.460938c0-23.160156-18.84375-42-42-42h-216c-5.523438 0-10 4.476562-10 10s4.476562 10 10 10h216c12.128906 0 21.996094 9.867188 21.996094 22 0 12.128906-9.867188 22-21.996094 22h-296c-12.132812 0-22-9.871094-22-22 0-12.132812 9.867188-22 22-22h11.035156c5.523438 0 10-4.476562 10-10s-4.476562-10-10-10h-11.035156c-23.160156 0-42 18.839844-42 42v336c0 23.15625 18.839844 42 42 42h219.480469c8.613281 52.121094 53.992187 92 108.519531 92 60.652344 0 110-49.347656 110-110 0-57.28125-44.015625-104.46875-100-109.539062zm-338-208.460938h296c8.0625 0 15.59375-2.289062 21.996094-6.242188v76.242188c0 12.128906-9.867188 22-21.996094 22h-296c-12.128906 0-22-9.871094-22-22v-76.242188c6.402344 3.953126 13.9375 6.242188 22 6.242188zm-22 294v-76.242188c6.402344 3.953126 13.9375 6.242188 22 6.242188h206c5.523438 0 10-4.476562 10-10s-4.476562-10-10-10h-206c-12.128906 0-22-9.871094-22-22v-76.242188c6.402344 3.953126 13.9375 6.242188 22 6.242188h296c8.0625 0 15.59375-2.289062 22-6.242188v76.242188c0 12.128906-9.871094 22-22 22h-21.035156c-5.519532 0-10 4.476562-10 10 0 4.414062 2.863281 8.152344 6.832031 9.476562-31.652344 18.894532-53.066406 53.222657-53.773437 92.523438h-218.023438c-12.132812 0-22-9.871094-22-22zm350 114c-49.628906 0-90-40.375-90-90s40.371094-90 90-90c49.625 0 90 40.375 90 90s-40.375 90-90 90zm0 0"/><path d="m81.765625 20h.269531c5.523438 0 10-4.476562 10-10s-4.476562-10-10-10h-.269531c-5.523437 0-10 4.476562-10 10s4.476563 10 10 10zm0 0"/><path d="m220.117188 440h-.234376c-5.523437 0-10 4.476562-10 10s4.476563 10 10 10h.234376c5.523437 0 10-4.476562 10-10s-4.476563-10-10-10zm0 0"/><path d="m190.117188 440h-.234376c-5.523437 0-10 4.476562-10 10s4.476563 10 10 10h.234376c5.523437 0 10-4.476562 10-10s-4.476563-10-10-10zm0 0"/><path d="m160.117188 440h-.238282c-5.523437 0-10 4.476562-10 10s4.476563 10 10 10h.238282c5.523437 0 10-4.476562 10-10s-4.476563-10-10-10zm0 0"/><path d="m299.761719 140h.234375c5.523437 0 10-4.476562 10-10s-4.476563-10-10-10h-.234375c-5.523438 0-10 4.476562-10 10s4.476562 10 10 10zm0 0"/><path d="m269.757812 140h.238282c5.519531 0 10-4.476562 10-10s-4.480469-10-10-10h-.238282c-5.519531 0-10 4.476562-10 10s4.480469 10 10 10zm0 0"/><path d="m110 232h-.238281c-5.523438 0-10 4.476562-10 10s4.476562 10 10 10h.238281c5.523438 0 10-4.476562 10-10s-4.476562-10-10-10zm0 0"/></svg>