<svg height="512pt" viewBox="-16 0 512 512" width="512pt" xmlns="http://www.w3.org/2000/svg"><g fill-rule="evenodd"><path d="m42 74h296c17.597656 0 32-14.398438 32-32s-14.402344-32-32-32h-296c-17.601562 0-32 14.398438-32 32s14.398438 32 32 32zm0 0" fill="#00c9af"/><path d="m214 114h-48c-8.800781 0-16 7.199219-16 16s7.199219 16 16 16h48c8.800781 0 16-7.199219 16-16s-7.199219-16-16-16zm0 0" fill="#00c9af"/><path d="m166 146c-8.800781 0-16-7.199219-16-16s7.199219-16 16-16h48c8.800781 0 16 7.199219 16 16s-7.199219 16-16 16zm172 40c17.597656 0 32-14.402344 32-32v-112c0 17.601562-14.402344 32-32 32h-296c-17.601562 0-32-14.398438-32-32v112c0 17.597656 14.398438 32 32 32zm0 0" fill="#8ae7d3"/><path d="m338 186h-296c-17.601562 0-32-14.402344-32-32v112c0 17.597656 14.398438 31.996094 32 31.996094h296c17.597656 0 32-14.398438 32-31.996094v-112c0 17.597656-14.402344 32-32 32zm-188 56c0-8.800781 7.199219-16 16-16h48c8.800781 0 16 7.199219 16 16s-7.199219 16-16 16h-48c-8.800781 0-16-7.199219-16-16zm0 0" fill="#8ae7d3"/><path d="m214 226h-48c-8.800781 0-16 7.199219-16 16s7.199219 16 16 16h48c8.800781 0 16-7.199219 16-16s-7.199219-16-16-16zm0 0" fill="#00c9af"/><path d="m338 298h-296c-17.601562 0-32-14.402344-32-32v112c0 17.597656 14.398438 32 32 32h228.3125c-.207031-2.640625-.3125-5.308594-.3125-8 0-55.226562 44.769531-100 100-100v-36c0 17.597656-14.402344 32-32 32zm-172 40h48c8.800781 0 16 7.199219 16 16 0 8.796875-7.199219 16-16 16h-48c-8.800781 0-16-7.203125-16-16 0-8.800781 7.199219-16 16-16zm0 0" fill="#8ae7d3"/><path d="m214 338h-48c-8.800781 0-16 7.199219-16 16 0 8.796875 7.199219 16 16 16h48c8.800781 0 16-7.203125 16-16 0-8.800781-7.199219-16-16-16zm0 0" fill="#00c9af"/><path d="m370 302c-55.230469 0-100 44.773438-100 100 0 2.691406.105469 5.359375.3125 8 4.078125 51.488281 47.148438 92 99.6875 92 55.226562 0 100-44.769531 100-100 0-55.226562-44.773438-100-100-100zm0 0" fill="#a3bfee"/><path d="m348.582031 397.484375c-5.855469 5.855469-15.351562 5.855469-21.210937 0-5.855469-5.859375-5.855469-15.355469 0-21.210937l32.023437-32.019532c5.855469-5.859375 15.351563-5.859375 21.207031 0l32.023438 32.019532c5.855469 5.855468 5.855469 15.351562 0 21.210937-5.859375 5.855469-15.355469 5.855469-21.210938 0l-6.414062-6.414063v58.070313c0 8.285156-6.71875 15-15 15-8.285156 0-15-6.714844-15-15v-58.070313zm0 0" fill="#00c9af"/></g><path d="m387.675781 337.183594c-9.75-9.75-25.605469-9.75-35.355469 0l-32.019531 32.019531c-9.746093 9.746094-9.746093 25.605469 0 35.351563 6.675781 6.671874 16.214844 8.777343 24.695313 6.3125v38.273437c0 13.785156 11.214844 25 25 25s25-11.214844 25-25v-38.257813c2.253906.65625 4.609375.992188 7.019531.992188 6.679687 0 12.957031-2.597656 17.679687-7.320312 4.722657-4.722657 7.320313-11 7.320313-17.675782 0-6.679687-2.601563-12.957031-7.320313-17.675781zm17.875 53.230468c-1.929687 1.929688-5.136719 1.929688-7.066406 0l-6.414063-6.414062c-2.859374-2.863281-7.160156-3.714844-10.898437-2.167969s-6.171875 5.191407-6.171875 9.238281v58.070313c0 2.757813-2.246094 5-5 5-2.757812 0-5-2.242187-5-5v-58.070313c0-4.046874-2.4375-7.691406-6.175781-9.242187-1.234375-.511719-2.535157-.757813-3.824219-.757813-2.601562 0-5.160156 1.015626-7.074219 2.925782l-6.414062 6.414062c-1.945313 1.949219-5.117188 1.953125-7.066407 0-1.949218-1.949218-1.949218-5.121094 0-7.066406l32.019532-32.019531c1.273437-1.277344 2.761718-1.464844 3.535156-1.464844s2.261719.1875 3.535156 1.464844l32.019532 32.019531c1.929687 1.929688 1.929687 5.136719-.003907 7.070312zm0 0"/><path d="m287.964844 308h.269531c5.523437 0 10-4.476562 10-10s-4.476563-10-10-10h-.269531c-5.519532 0-10 4.476562-10 10s4.476562 10 10 10zm0 0"/><path d="m166 156h48c14.335938 0 26-11.664062 26-26s-11.664062-26-26-26h-48c-14.335938 0-26 11.664062-26 26s11.664062 26 26 26zm0-32h48c3.25 0 6 2.746094 6 6 0 3.25-2.75 6-6 6h-48c-3.253906 0-6-2.75-6-6 0-3.253906 2.746094-6 6-6zm0 0"/><path d="m214 216h-48c-14.335938 0-26 11.664062-26 26s11.664062 26 26 26h48c14.335938 0 26-11.664062 26-26s-11.664062-26-26-26zm0 32h-48c-3.253906 0-6-2.75-6-6 0-3.253906 2.746094-6 6-6h48c3.25 0 6 2.746094 6 6 0 3.25-2.75 6-6 6zm0 0"/><path d="m214 328h-48c-14.335938 0-26 11.664062-26 26s11.664062 26 26 26h48c14.335938 0 26-11.664062 26-26s-11.664062-26-26-26zm0 32h-48c-3.253906 0-6-2.75-6-6 0-3.253906 2.746094-6 6-6h48c3.25 0 6 2.746094 6 6 0 3.25-2.75 6-6 6zm0 0"/><path d="m380 292.460938v-250.460938c0-23.160156-18.84375-42-42-42h-216c-5.523438 0-10 4.476562-10 10s4.476562 10 10 10h216c12.128906 0 22 9.867188 22 22 0 12.128906-9.871094 22-22 22h-296c-12.132812 0-22-9.871094-22-22 0-12.132812 9.867188-22 22-22h11.035156c5.519532 0 10-4.476562 10-10s-4.480468-10-10-10h-11.035156c-23.160156 0-42 18.839844-42 42v336c0 23.15625 18.839844 42 42 42h219.480469c8.613281 52.121094 53.992187 92 108.519531 92 60.652344 0 110-49.347656 110-110 0-57.28125-44.015625-104.46875-100-109.539062zm-338-208.460938h296c8.0625 0 15.59375-2.289062 22-6.242188v76.242188c0 12.128906-9.871094 22-22 22h-296c-12.132812 0-22-9.871094-22-22v-76.242188c6.402344 3.953126 13.9375 6.242188 22 6.242188zm-22 294v-76.242188c6.402344 3.953126 13.9375 6.242188 22 6.242188h206c5.523438 0 10-4.476562 10-10s-4.476562-10-10-10h-206c-12.132812 0-22-9.871094-22-22v-76.242188c6.402344 3.953126 13.9375 6.242188 22 6.242188h296c8.0625 0 15.59375-2.289062 22-6.242188v76.242188c0 12.128906-9.871094 22-22 22h-21.035156c-5.523438 0-10 4.476562-10 10 0 4.414062 2.863281 8.152344 6.832031 9.476562-31.652344 18.894532-53.066406 53.222657-53.773437 92.523438h-218.023438c-12.132812 0-22-9.871094-22-22zm350 114c-49.628906 0-90-40.375-90-90 0-49.621094 40.367188-89.996094 89.992188-90h.007812.007812c49.621094.003906 89.992188 40.375 89.992188 90s-40.375 90-90 90zm0 0"/><path d="m81.765625 20h.269531c5.519532 0 10-4.476562 10-10s-4.480468-10-10-10h-.269531c-5.523437 0-10 4.476562-10 10s4.476563 10 10 10zm0 0"/><path d="m220.117188 440h-.234376c-5.523437 0-10 4.476562-10 10s4.476563 10 10 10h.234376c5.523437 0 10-4.476562 10-10s-4.476563-10-10-10zm0 0"/><path d="m190.117188 440h-.234376c-5.523437 0-10 4.476562-10 10s4.476563 10 10 10h.234376c5.523437 0 10-4.476562 10-10s-4.476563-10-10-10zm0 0"/><path d="m160.117188 440h-.238282c-5.519531 0-10 4.476562-10 10s4.480469 10 10 10h.238282c5.519531 0 10-4.476562 10-10s-4.476563-10-10-10zm0 0"/><path d="m299.761719 140h.234375c5.523437 0 10-4.476562 10-10s-4.476563-10-10-10h-.234375c-5.523438 0-10 4.476562-10 10s4.476562 10 10 10zm0 0"/><path d="m269.761719 140h.234375c5.519531 0 10-4.476562 10-10s-4.480469-10-10-10h-.234375c-5.523438 0-10 4.476562-10 10s4.476562 10 10 10zm0 0"/><path d="m109.996094 232h-.234375c-5.519531 0-10 4.476562-10 10s4.480469 10 10 10h.234375c5.523437 0 10-4.476562 10-10s-4.476563-10-10-10zm0 0"/></svg>