<svg height="512pt" viewBox="-16 0 512 512" width="512pt" xmlns="http://www.w3.org/2000/svg"><g fill-rule="evenodd"><path d="m42 74h296c17.597656 0 32-14.398438 32-32s-14.402344-32-32-32h-296c-17.601562 0-32 14.398438-32 32s14.398438 32 32 32zm0 0" fill="#00c9af"/><path d="m214 114h-48c-8.800781 0-16 7.199219-16 16s7.199219 16 16 16h48c8.800781 0 16-7.199219 16-16s-7.199219-16-16-16zm0 0" fill="#00c9af"/><path d="m166 146c-8.800781 0-16-7.199219-16-16s7.199219-16 16-16h48c8.800781 0 16 7.199219 16 16s-7.199219 16-16 16zm172 40c17.597656 0 31.996094-14.402344 31.996094-32v-112c0 17.601562-14.398438 32-32 32h-295.996094c-17.601562 0-32-14.398438-32-32v112c0 17.597656 14.398438 32 32 32zm0 0" fill="#8ae7d3"/><path d="m338 186h-296c-17.601562 0-32-14.398438-32-32v112c0 17.597656 14.398438 32 32 32h296c17.597656 0 31.996094-14.402344 31.996094-32v-112c.003906 17.597656-14.398438 32-31.996094 32zm-188 56c0-8.800781 7.199219-16 16-16h48c8.800781 0 16 7.199219 16 16s-7.199219 16-16 16h-48c-8.800781 0-16-7.199219-16-16zm0 0" fill="#8ae7d3"/><path d="m214 226h-48c-8.800781 0-16 7.199219-16 16s7.199219 16 16 16h48c8.800781 0 16-7.199219 16-16s-7.199219-16-16-16zm0 0" fill="#00c9af"/><path d="m338 298h-296c-17.601562 0-32-14.402344-32-32v112c0 17.597656 14.398438 31.996094 32 31.996094h228.3125c-.207031-2.636719-.3125-5.304688-.3125-7.996094 0-55.230469 44.769531-100 100-100v-36.003906c0 17.601562-14.402344 32.003906-32 32.003906zm-172 40h48c8.800781 0 16 7.199219 16 16 0 8.796875-7.199219 16-16 16h-48c-8.800781 0-16-7.203125-16-16 0-8.800781 7.199219-16 16-16zm0 0" fill="#8ae7d3"/><path d="m214 338h-48c-8.800781 0-16 7.199219-16 16 0 8.796875 7.199219 16 16 16h48c8.800781 0 16-7.203125 16-16 0-8.800781-7.199219-16-16-16zm0 0" fill="#00c9af"/><path d="m370 302c-55.230469 0-100 44.773438-100 100 0 2.691406.105469 5.359375.3125 8 4.078125 51.488281 47.148438 92 99.6875 92 55.226562 0 100-44.773438 100-100s-44.773438-100-100-100zm0 0" fill="#a3bfee"/><path d="m350.019531 351.015625c-2.976562 11.101563-16.128906 18.300781-25.617187 18.300781v22.882813c0 42.921875 39.226562 60.785156 45.597656 60.785156 6.367188 0 45.59375-17.863281 45.59375-60.785156 0-17.652344 0-5.230469 0-22.882813-9.484375 0-22.640625-7.199218-25.617188-18.300781zm0 0" fill="#00c9af"/></g><path d="m415.59375 359.316406c-5.25 0-14.265625-4.570312-15.957031-10.890625-1.171875-4.371093-5.132813-7.410156-9.660157-7.410156h-39.957031c-4.527343 0-8.488281 3.039063-9.660156 7.410156-1.691406 6.316407-10.707031 10.890625-15.957031 10.890625-5.523438 0-10 4.476563-10 10v22.878906c0 48.839844 44.191406 70.789063 55.597656 70.789063 11.402344 0 55.59375-21.949219 55.59375-70.789063v-22.878906c0-5.523437-4.476562-10-10-10zm-10 32.878906c0 34.230469-29.214844 48.839844-35.597656 50.667969-6.378906-1.828125-35.59375-16.4375-35.59375-50.667969v-14.453124c8.664062-2.636719 17.25-8.484376 22.136718-16.726563h26.917969c4.882813 8.242187 13.46875 14.089844 22.136719 16.726563zm0 0"/><path d="m287.964844 308h.269531c5.523437 0 10-4.480469 10-10 0-5.523438-4.476563-10-10-10h-.269531c-5.523438 0-10 4.476562-10 10 0 5.519531 4.476562 10 10 10zm0 0"/><path d="m166 156h48c14.335938 0 26-11.664062 26-26s-11.664062-26-26-26h-48c-14.335938 0-26 11.664062-26 26s11.664062 26 26 26zm0-32h48c3.25 0 6 2.746094 6 6 0 3.25-2.75 6-6 6h-48c-3.253906 0-6-2.75-6-6 0-3.253906 2.746094-6 6-6zm0 0"/><path d="m214 216h-48c-14.335938 0-26 11.664062-26 26s11.664062 26 26 26h48c14.335938 0 26-11.664062 26-26s-11.664062-26-26-26zm0 32h-48c-3.253906 0-6-2.75-6-6 0-3.253906 2.746094-6 6-6h48c3.25 0 6 2.746094 6 6 0 3.25-2.75 6-6 6zm0 0"/><path d="m214 328h-48c-14.335938 0-26 11.660156-26 26 0 14.335938 11.664062 26 26 26h48c14.335938 0 26-11.664062 26-26 0-14.339844-11.664062-26-26-26zm0 32h-48c-3.253906 0-6-2.75-6-6 0-3.253906 2.746094-6 6-6h48c3.25 0 6 2.746094 6 6 0 3.25-2.75 6-6 6zm0 0"/><path d="m380 292.460938v-250.460938c0-23.160156-18.84375-42-42-42h-216c-5.523438 0-10 4.476562-10 10s4.476562 10 10 10h215.996094c12.132812 0 22 9.867188 22 22 0 12.128906-9.867188 22-22 22h-295.996094c-12.132812 0-22-9.871094-22-22 0-12.132812 9.867188-22 22-22h11.03125c5.523438 0 10-4.476562 10-10s-4.476562-10-10-10h-11.03125c-23.160156 0-42 18.839844-42 42v336c0 23.15625 18.839844 42 42 42h219.480469c8.613281 52.121094 53.992187 92 108.519531 92 60.652344 0 110-49.347656 110-110 0-57.28125-44.015625-104.46875-100-109.539062zm-338-208.460938h296c8.0625 0 15.59375-2.289062 22-6.242188v76.242188c0 12.128906-9.871094 22-22 22h-296c-12.132812 0-22-9.871094-22-22v-76.242188c6.402344 3.953126 13.9375 6.242188 22 6.242188zm-22 294v-76.242188c6.402344 3.953126 13.9375 6.242188 22 6.242188h206c5.523438 0 10-4.480469 10-10 0-5.523438-4.476562-10-10-10h-206c-12.132812 0-22-9.871094-22-22v-76.242188c6.402344 3.953126 13.9375 6.242188 22 6.242188h296c8.0625 0 15.59375-2.289062 22-6.242188v76.242188c0 12.128906-9.871094 22-22 22h-21.035156c-5.523438 0-10 4.476562-10 10 0 4.414062 2.863281 8.152344 6.832031 9.476562-31.652344 18.894532-53.066406 53.222657-53.773437 92.523438h-218.023438c-12.132812 0-22-9.871094-22-22zm350 114c-49.628906 0-90-40.375-90-90s40.371094-90 90-90c49.625 0 90 40.375 90 90s-40.375 90-90 90zm0 0"/><path d="m81.765625 20h.269531c5.523438 0 10-4.476562 10-10s-4.476562-10-10-10h-.269531c-5.523437 0-10 4.476562-10 10s4.476563 10 10 10zm0 0"/><path d="m220.117188 440h-.234376c-5.523437 0-10 4.476562-10 10 0 5.519531 4.476563 10 10 10h.234376c5.523437 0 10-4.480469 10-10 0-5.523438-4.476563-10-10-10zm0 0"/><path d="m190.117188 440h-.234376c-5.523437 0-10 4.476562-10 10 0 5.519531 4.476563 10 10 10h.234376c5.523437 0 10-4.480469 10-10 0-5.523438-4.476563-10-10-10zm0 0"/><path d="m160.117188 440h-.238282c-5.523437 0-10 4.476562-10 10 0 5.519531 4.476563 10 10 10h.238282c5.523437 0 10-4.480469 10-10 0-5.523438-4.476563-10-10-10zm0 0"/><path d="m299.761719 140h.234375c5.523437 0 10-4.480469 10-10 0-5.523438-4.476563-10-10-10h-.234375c-5.523438 0-10 4.476562-10 10 0 5.519531 4.476562 10 10 10zm0 0"/><path d="m269.757812 140h.238282c5.523437 0 10-4.480469 10-10 0-5.523438-4.476563-10-10-10h-.238282c-5.523437 0-10 4.476562-10 10 0 5.519531 4.476563 10 10 10zm0 0"/><path d="m109.996094 232h-.234375c-5.523438 0-10 4.476562-10 10 0 5.519531 4.476562 10 10 10h.234375c5.523437 0 10-4.480469 10-10 0-5.523438-4.476563-10-10-10zm0 0"/></svg>