<svg height="512pt" viewBox="-16 0 512 512" width="512pt" xmlns="http://www.w3.org/2000/svg"><g fill-rule="evenodd"><path d="m42 74h295.996094c17.601562 0 32-14.402344 32-32 0-17.601562-14.398438-32-32-32h-295.996094c-17.601562 0-32 14.398438-32 32 0 17.597656 14.398438 32 32 32zm0 0" fill="#00c9af"/><path d="m213.996094 114h-47.996094c-8.800781 0-16 7.199219-16 16 0 8.796875 7.199219 16 16 16h47.996094c8.800781 0 16-7.203125 16-16 0-8.800781-7.199219-16-16-16zm0 0" fill="#00c9af"/><path d="m166 146c-8.800781 0-16-7.203125-16-16 0-8.800781 7.199219-16 16-16h47.996094c8.800781 0 16 7.199219 16 16 0 8.796875-7.199219 16-16 16zm171.996094 40c17.601562 0 32-14.402344 32-32v-112c0 17.597656-14.398438 32-32 32h-295.996094c-17.601562 0-32-14.402344-32-32v112c0 17.597656 14.398438 31.996094 32 31.996094h295.996094zm0 0" fill="#8ae7d3"/><path d="m337.996094 186h-295.996094c-17.601562 0-32-14.402344-32-32v111.996094c0 17.601562 14.398438 32 32 32h295.996094c17.601562 0 32-14.398438 32-32v-111.996094c0 17.597656-14.398438 32-32 32zm-187.996094 55.996094c0-8.800782 7.199219-16 16-16h47.996094c8.800781 0 16 7.199218 16 16 0 8.800781-7.199219 16-16 16h-47.996094c-8.800781 0-16-7.199219-16-16zm0 0" fill="#8ae7d3"/><path d="m213.996094 225.996094h-47.996094c-8.800781 0-16 7.203125-16 16 0 8.800781 7.199219 16 16 16h47.996094c8.800781 0 16-7.199219 16-16 0-8.796875-7.199219-16-16-16zm0 0" fill="#00c9af"/><path d="m190 297.996094h-148c-17.601562 0-32-14.398438-32-31.996094v111.996094c0 17.601562 14.402344 32 32 32h295.996094c17.601562 0 32-14.398438 32-32v-112c0 17.601562-14.398438 32-32 32zm0 72h-24c-8.800781 0-16-7.199219-16-16 0-8.800782 7.199219-16 16-16h47.996094c8.800781 0 16 7.199218 16 16 0 8.800781-7.199219 16-16 16zm0 0" fill="#8ae7d3"/><path d="m213.996094 337.996094h-47.996094c-8.800781 0-16 7.199218-16 16 0 8.800781 7.199219 16 16 16h47.996094c8.800781 0 16-7.199219 16-16 0-8.800782-7.199219-16-16-16zm0 0" fill="#00c9af"/><path d="m369.996094 361.996094c22.089844 0 40 17.910156 40 40s-17.910156 40-40 40-40-17.910156-40-40 17.910156-40 40-40zm22.992187-57.316406c-14.816406-3.515626-30.539062-3.683594-45.992187-.011719l1.878906 4.535156c3.371094 8.128906-.527344 17.539063-8.65625 20.90625-8.132812 3.367187-17.539062-.53125-20.90625-8.660156l-1.878906-4.539063c-13.523438 8.332032-24.523438 19.566406-32.515625 32.53125l4.527343 1.875c8.128907 3.367188 12.027344 12.773438 8.660157 20.90625-3.371094 8.128906-12.777344 12.027344-20.90625 8.65625l-4.523438-1.871094c-1.777343 7.480469-2.695312 15.199219-2.699219 22.992188-.003906 7.636719.875 15.347656 2.691407 22.996094l4.53125-1.878906c8.128906-3.367188 17.535156.53125 20.902343 8.660156 3.371094 8.128906-.527343 17.539062-8.65625 20.90625l-4.539062 1.878906c1.59375 2.585938 3.292969 5.078125 5.089844 7.476562 7.601562 10.140626 16.953125 18.574219 27.441406 25.039063l1.875-4.527344c3.367188-8.128906 12.773438-12.027343 20.902344-8.660156s12.027344 12.777344 8.660156 20.90625l-1.875 4.523437c7.484375 1.777344 15.199219 2.695313 22.992188 2.699219 7.636718.003907 15.351562-.875 22.996093-2.691406l-1.875-4.53125c-3.367187-8.128906.527344-17.539063 8.65625-20.90625 8.132813-3.367187 17.539063.53125 20.90625 8.660156l1.878907 4.539063c10.855468-6.691406 20.085937-15.246094 27.4375-25.070313 1.808593-2.414062 3.5-4.902343 5.078124-7.460937l-4.527343-1.875c-8.128907-3.367188-12.027344-12.773438-8.660157-20.90625 3.367188-8.128906 12.777344-12.027344 20.90625-8.65625l4.523438 1.871094c1.777344-7.480469 2.695312-15.195313 2.699219-22.992188.003906-7.636719-.875-15.347656-2.691407-22.996094l-4.53125 1.878906c-8.128906 3.367188-17.535156-.53125-20.902343-8.660156-3.367188-8.128906.527343-17.539062 8.65625-20.90625l4.539062-1.878906c-8.332031-13.519531-19.566406-24.519531-32.53125-32.511719l-1.875 4.523438c-3.367187 8.132812-12.773437 12.027343-20.902343 8.660156-8.132813-3.367187-12.027344-12.773437-8.660157-20.90625zm0 0" fill="#ff836c"/><path d="m409.996094 401.996094c0 22.09375-17.910156 40-40 40s-40-17.90625-40-40c0-22.089844 17.910156-40 40-40s40 17.910156 40 40zm0 0" fill="#fd4848"/></g><path d="m477.050781 376.691406c-.675781-2.851562-2.570312-5.261718-5.179687-6.59375-2.609375-1.332031-5.671875-1.453125-8.375-.332031l-4.53125 1.875c-3.003906 1.246094-6.59375-.242187-7.839844-3.246094-1.242188-3.003906.242188-6.59375 3.246094-7.839843l4.539062-1.878907c2.707032-1.121093 4.785156-3.371093 5.6875-6.160156.902344-2.785156.535156-5.828125-1-8.324219-8.910156-14.460937-21.289062-26.832031-35.792968-35.777344-2.496094-1.539062-5.539063-1.902343-8.328126-1.003906-2.785156.902344-5.039062 2.980469-6.160156 5.6875l-1.875 4.523438c-.605468 1.464844-1.761718 2.613281-3.253906 3.230468-1.492188.617188-3.121094.625-4.585938.019532-3.003906-1.246094-4.492187-4.835938-3.246093-7.839844l1.871093-4.523438c1.125-2.707031 1-5.769531-.332031-8.378906-1.335937-2.609375-3.746093-4.503906-6.597656-5.179687-5.03125-1.191407-10.152344-2.019531-15.300781-2.488281v-250.460938c0-23.160156-18.839844-42-42-42h-216c-5.519532 0-10 4.476562-10 10s4.480468 10 10 10h216c12.132812 0 22 9.867188 22 22 0 12.128906-9.867188 22-22 22h-295.996094c-12.132812 0-22-9.871094-22-22 0-12.132812 9.867188-22 22-22h11.035156c5.519532 0 10-4.476562 10-10s-4.480468-10-10-10h-11.035156c-23.160156 0-42 18.839844-42 42v335.996094c0 23.160156 18.839844 42 42 42h219.480469c.40625 2.453125.886719 4.894531 1.460937 7.3125.675782 2.851562 2.570313 5.257812 5.179688 6.59375 2.605468 1.332031 5.667968 1.453125 8.375.332031l4.53125-1.875c3.003906-1.246094 6.59375.242187 7.839844 3.246094 1.242187 3.003906-.242188 6.59375-3.246094 7.839843l-4.539063 1.878907c-2.707031 1.121093-4.785156 3.371093-5.6875 6.160156-.902343 2.785156-.539062 5.828125 1 8.324219 8.914063 14.464844 21.289063 26.839844 35.792969 35.78125 2.496094 1.535156 5.539062 1.902344 8.328125 1 2.785156-.898438 5.039063-2.980469 6.160156-5.6875l1.875-4.527344c.605469-1.460938 1.761719-2.609375 3.253907-3.226562 1.492187-.617188 3.121093-.625 4.585937-.019532 1.464844.605469 2.609375 1.761719 3.230469 3.253906.617187 1.492188.625 3.121094.015625 4.585938l-1.875 4.523438c-1.121094 2.707031-.996094 5.773437.335937 8.382812 1.335938 2.605469 3.746094 4.5 6.597656 5.175781 8.292969 1.964844 16.816407 2.949219 25.335938 2.949219 8.507812 0 17.011719-.980469 25.269531-2.941406 2.851563-.679688 5.261719-2.570313 6.59375-5.179688s1.457031-5.671875.335938-8.378906l-1.878907-4.53125c-.605468-1.464844-.597656-3.09375.019532-4.585938.617187-1.492187 1.765625-2.644531 3.230468-3.253906 1.460938-.605468 3.089844-.601562 4.582032.019532 1.492187.617187 2.648437 1.765624 3.253906 3.230468l1.878906 4.535156c1.121094 2.707032 3.375 4.785157 6.160156 5.6875 2.789063.902344 5.832032.535157 8.324219-1 14.464844-8.914062 26.839844-21.292968 35.78125-35.796874 1.539063-2.492188 1.90625-5.535157 1.003907-8.324219-.902344-2.785157-2.984376-5.039063-5.6875-6.160157l-4.527344-1.875c-3.003906-1.246093-4.492188-4.835937-3.25-7.839843 1.246094-3.003907 4.835937-4.492188 7.839844-3.246094l4.527343 1.875c2.707031 1.117187 5.769531.996094 8.378907-.335937 2.605468-1.335938 4.5-3.746094 5.175781-6.597657 3.933593-16.578125 3.9375-34.078125.007812-50.609375zm-139.464843-68.695312c.058593.167968.105468.335937.171874.5l1.882813 4.535156c1.242187 3.003906-.246094 6.59375-3.25 7.839844-1.464844.605468-3.09375.601562-4.582031-.019532-1.492188-.617187-2.648438-1.765624-3.253906-3.230468l-1.878907-4.535156c-.921875-2.226563-2.617187-4.019532-4.742187-5.089844zm-295.585938-223.996094h295.996094c8.0625 0 15.597656-2.289062 22-6.242188v76.242188c0 12.128906-9.867188 22-22 22h-295.996094c-12.128906 0-22-9.871094-22-22v-76.242188c6.402344 3.953126 13.9375 6.242188 22 6.242188zm226.125 286.101562c-2.609375 1.335938-4.503906 3.746094-5.179688 6.597657-1.808593 7.632812-2.773437 15.457031-2.917968 23.296875h-218.027344c-12.128906 0-22-9.867188-22-22v-76.242188c6.402344 3.957032 13.9375 6.242188 22 6.242188h206c5.523438 0 10-4.476563 10-10 0-5.519532-4.476562-10-10-10h-206c-12.128906 0-22-9.867188-22-22v-76.238282c6.402344 3.953126 13.9375 6.242188 22 6.242188h295.996094c8.0625 0 15.597656-2.289062 22-6.242188v76.238282c0 12.132812-9.867188 22-22 22h-21.03125c-5.523438 0-10 4.480468-10 10 0 4.480468 2.945312 8.273437 7.007812 9.542968-.617187.226563-1.214844.507813-1.78125.859376-14.46875 8.914062-26.839844 21.292968-35.78125 35.796874-1.539062 2.492188-1.90625 5.535157-1.003906 8.324219.902344 2.785157 2.980469 5.039063 5.6875 6.160157l4.527344 1.875c3.003906 1.246093 4.492187 4.835937 3.246094 7.839843-1.242188 3.003907-4.832032 4.492188-7.839844 3.246094l-4.523438-1.875c-2.707031-1.117187-5.773437-.996094-8.378906.335937zm191.308594 41.945313c-11.171875-1.183594-22.273438 5.011719-26.785156 15.902344-4.511719 10.894531-1.042969 23.136719 7.695312 30.191406-4.1875 5.25-8.960938 10.027344-14.199219 14.210937-2.695312-3.347656-6.210937-5.984374-10.304687-7.683593-6.429688-2.660157-13.492188-2.667969-19.890625-.015625-6.402344 2.648437-11.394531 7.648437-14.054688 14.074218-1.695312 4.09375-2.3125 8.445313-1.855469 12.71875-6.660156.742188-13.414062.742188-20.085937-.007812.457031-4.269531-.160156-8.617188-1.855469-12.710938-2.664062-6.425781-7.652344-11.425781-14.050781-14.074218-6.402344-2.652344-13.464844-2.648438-19.894531.015625-4.089844 1.695312-7.601563 4.332031-10.300782 7.679687-5.25-4.1875-10.027343-8.964844-14.210937-14.199218 8.746094-7.058594 12.214844-19.300782 7.703125-30.195313s-15.617188-17.09375-26.792969-15.90625c-.746093-6.660156-.742187-13.417969.003907-20.09375 11.167968 1.1875 22.277343-5.015625 26.789062-15.90625s1.042969-23.132813-7.699219-30.1875c4.191407-5.25 8.964844-10.027344 14.203125-14.214844 2.695313 3.351563 6.210938 5.988281 10.304688 7.6875 6.429687 2.664063 13.492187 2.667969 19.894531.015625 10.894531-4.511718 17.097656-15.625 15.902344-26.796875 6.664062-.742187 13.417969-.738281 20.09375.007813-1.191407 11.171875 5.011719 22.277344 15.902343 26.789062 6.402344 2.652344 13.464844 2.648438 19.894532-.015625 4.089844-1.695312 7.605468-4.332031 10.300781-7.675781 5.25 4.1875 10.027344 8.960938 14.210937 14.199219-8.742187 7.054687-12.214843 19.300781-7.703124 30.195312 4.511718 10.890625 15.632812 17.113281 26.792968 15.902344.746094 6.660156.742188 13.417969-.007812 20.09375zm0 0"/><path d="m369.996094 351.996094c-27.570313 0-50 22.429687-50 50 0 27.570312 22.429687 50 50 50 27.570312 0 50-22.429688 50-50 0-27.570313-22.429688-50-50-50zm0 80c-16.542969 0-30-13.457032-30-30 0-16.539063 13.457031-30 30-30 16.542968 0 30 13.460937 30 30 0 16.542968-13.457032 30-30 30zm0 0"/><path d="m287.964844 307.996094h.265625c5.523437 0 10-4.476563 10-10 0-5.519532-4.476563-10-10-10h-.265625c-5.523438 0-10 4.480468-10 10 0 5.523437 4.476562 10 10 10zm0 0"/><path d="m166 156h47.996094c14.335937 0 26-11.664062 26-26.003906 0-14.335938-11.664063-25.996094-26-25.996094h-47.996094c-14.335938 0-26 11.660156-26 26 0 14.335938 11.664062 26 26 26zm0-32h47.996094c3.253906 0 6 2.746094 6 6 0 3.25-2.746094 6-6 6h-47.996094c-3.253906 0-6-2.75-6-6.003906 0-3.25 2.746094-5.996094 6-5.996094zm0 0"/><path d="m213.996094 215.996094h-47.996094c-14.335938 0-26 11.664062-26 26 0 14.339844 11.664062 26 26 26h47.996094c14.335937 0 26-11.664063 26-26 0-14.335938-11.660156-26-26-26zm0 32h-47.996094c-3.253906 0-6-2.746094-6-6 0-3.25 2.746094-6 6-6h47.996094c3.253906 0 6 2.75 6 6 0 3.253906-2.746094 6-6 6zm0 0"/><path d="m213.996094 327.996094h-47.996094c-14.335938 0-26 11.664062-26 26 0 14.335937 11.664062 26 26 26h47.996094c14.335937 0 26-11.664063 26-26 0-14.335938-11.660156-26-26-26zm0 32h-47.996094c-3.253906 0-6-2.746094-6-6s2.746094-6 6-6h47.996094c3.253906 0 6 2.75 6 6 0 3.253906-2.746094 6-6 6zm0 0"/><path d="m81.761719 20h.269531c5.523438 0 10-4.476562 10-10s-4.476562-10-10-10h-.269531c-5.519531 0-10 4.476562-10 10s4.480469 10 10 10zm0 0"/><path d="m220.117188 439.996094h-.238282c-5.519531 0-9.996094 4.480468-9.996094 10 0 5.523437 4.476563 10 9.996094 10h.238282c5.523437 0 10-4.476563 10-10 0-5.519532-4.476563-10-10-10zm0 0"/><path d="m190.117188 439.996094h-.238282c-5.523437 0-10 4.480468-10 10 0 5.523437 4.476563 10 10 10h.238282c5.523437 0 10-4.476563 10-10 0-5.519532-4.476563-10-10-10zm0 0"/><path d="m160.117188 439.996094h-.238282c-5.523437 0-10 4.480468-10 10 0 5.523437 4.476563 10 10 10h.238282c5.519531 0 10-4.476563 10-10 0-5.519532-4.480469-10-10-10zm0 0"/><path d="m299.757812 140h.238282c5.523437 0 10-4.480469 10-10 0-5.523438-4.476563-10-10-10h-.238282c-5.523437 0-10 4.476562-10 10 0 5.519531 4.476563 10 10 10zm0 0"/><path d="m269.757812 140h.234376c5.523437 0 10-4.480469 10-10 0-5.523438-4.476563-10-10-10h-.234376c-5.523437 0-10 4.476562-10 10 0 5.519531 4.476563 10 10 10zm0 0"/><path d="m109.996094 231.996094h-.234375c-5.523438 0-10 4.480468-10 10 0 5.523437 4.476562 10 10 10h.234375c5.523437 0 10-4.476563 10-10 0-5.519532-4.476563-10-10-10zm0 0"/></svg>